<svg width="100" height="100" viewBox="0 0 100 100" fill="none" xmlns="http://www.w3.org/2000/svg">
<rect width="100" height="100" rx="12" fill="#2E518A"/>
<path d="M51.8667 79.4C51.3219 79.7888 50.6693 79.9978 50 79.9978C49.3307 79.9978 48.6781 79.7888 48.1333 79.4C32.0367 67.9267 14.9533 44.3267 32.2233 27.2733C36.9629 22.6071 43.3489 19.9942 50 20C56.6667 20 63.0633 22.6167 67.7767 27.27C85.0467 44.3233 67.9633 67.92 51.8667 79.4Z" stroke="white" stroke-width="4" stroke-linecap="round" stroke-linejoin="round"/>
<path d="M50 50C51.7681 50 53.4638 49.2976 54.7141 48.0474C55.9643 46.7972 56.6667 45.1015 56.6667 43.3334C56.6667 41.5652 55.9643 39.8696 54.7141 38.6193C53.4638 37.3691 51.7681 36.6667 50 36.6667C48.2319 36.6667 46.5362 37.3691 45.286 38.6193C44.0357 39.8696 43.3333 41.5652 43.3333 43.3334C43.3333 45.1015 44.0357 46.7972 45.286 48.0474C46.5362 49.2976 48.2319 50 50 50Z" stroke="white" stroke-width="4" stroke-linecap="round" stroke-linejoin="round"/>
</svg>
