<svg width="100" height="100" viewBox="0 0 100 100" fill="none" xmlns="http://www.w3.org/2000/svg">
<rect width="100" height="100" rx="50" fill="#2E518A"/>
<path d="M51.68 76.46C51.1897 76.8099 50.6024 76.998 50 76.998C49.3976 76.998 48.8103 76.8099 48.32 76.46C33.833 66.134 18.458 44.894 34.001 29.546C38.2666 25.3464 44.014 22.9948 50 23C56 23 61.757 25.355 65.999 29.543C81.542 44.891 66.167 66.128 51.68 76.46Z" stroke="white" stroke-width="3.6" stroke-linecap="round" stroke-linejoin="round"/>
<path d="M50 50C51.5913 50 53.1174 49.3679 54.2426 48.2426C55.3679 47.1174 56 45.5913 56 44C56 42.4087 55.3679 40.8826 54.2426 39.7574C53.1174 38.6321 51.5913 38 50 38C48.4087 38 46.8826 38.6321 45.7574 39.7574C44.6321 40.8826 44 42.4087 44 44C44 45.5913 44.6321 47.1174 45.7574 48.2426C46.8826 49.3679 48.4087 50 50 50Z" stroke="white" stroke-width="3.6" stroke-linecap="round" stroke-linejoin="round"/>
</svg>
