<svg width="300" height="300" viewBox="0 0 300 300" fill="none" xmlns="http://www.w3.org/2000/svg">
<rect width="300" height="300" fill="#2E518A"/>
<path d="M159.396 250.671H98.9933H68.7919V68.1208H250V159.396" stroke="white" stroke-width="5.36913"/>
<path d="M140.604 49.3289H201.007H231.208V231.879H50V140.604" stroke="white" stroke-width="5.36913"/>
<path d="M126.027 194.383H121.745C120.859 194.383 120.268 193.94 120.268 192.611V101.215C120.268 99.8859 120.859 99.443 121.745 99.443H125.732C126.913 99.443 127.356 100.034 127.503 100.329L172.832 178.289H173.423V101.215C173.423 99.8859 174.013 99.443 175.047 99.443H179.181C180.215 99.443 180.805 99.8859 180.805 101.215V192.611C180.805 193.94 180.215 194.383 179.181 194.383H175.785C174.309 194.383 173.866 193.497 173.423 192.758L128.242 115.389H127.651V192.611C127.651 193.94 127.06 194.383 126.027 194.383Z" fill="white"/>
</svg>
