<svg width="100" height="100" viewBox="0 0 100 100" fill="none" xmlns="http://www.w3.org/2000/svg">
<rect width="100" height="100" rx="50" fill="#2E518A"/>
<path d="M64.2276 48.7372C64.2276 44.9513 62.7237 41.3205 60.0467 38.6435C57.3696 35.9665 53.7388 34.4626 49.953 34.4626M74.0131 47.7384C74.0131 44.739 73.4222 41.7689 72.2743 38.9979C71.1264 36.2268 69.4439 33.709 67.3229 31.5882C65.2018 29.4674 62.6838 27.7852 59.9126 26.6377C57.1414 25.4901 54.1713 24.8997 51.1719 24.9M49.4987 74.1856C48.6522 73.799 47.8085 73.4124 46.9648 72.9525C42.8257 70.6155 39.0239 67.726 35.6642 64.3635C31.308 60.2637 27.7299 55.4094 25.1028 50.0352C23.6956 47.1493 22.7456 44.0623 22.2868 40.8846C21.6623 37.6742 22.0182 34.3501 23.3082 31.3446C24.1025 30.053 25.0604 28.8694 26.1581 27.8232C26.6038 27.3244 27.1457 26.9207 27.7513 26.6366C28.3569 26.3524 29.0138 26.1936 29.6823 26.1698C31.0734 26.3786 32.3346 27.1065 33.2037 28.2098C35.1055 30.3232 37.1455 32.225 39.1517 34.2312C39.9418 34.9084 40.4356 35.8677 40.5259 36.9061C40.492 37.7808 40.1562 38.6132 39.575 39.265C38.9062 40.1115 38.0964 40.8846 37.3233 41.6916C36.8553 42.1415 36.4973 42.6932 36.277 43.304C36.0568 43.9147 35.9804 44.5679 36.0536 45.213C36.5389 46.7226 37.3713 48.0995 38.483 49.2282C39.8171 51.0477 41.2147 52.8199 42.6731 54.5413C45.3919 57.6818 48.6151 60.3471 52.2103 62.4278C52.7078 62.8036 53.2962 63.0407 53.9153 63.1151C54.5343 63.1894 55.1621 63.0983 55.7345 62.8511C56.928 62.1823 57.9918 61.2992 58.8665 60.2467C59.6234 59.3237 60.7086 58.73 61.8941 58.5904C62.9494 58.6468 63.9426 59.0983 64.6763 59.8601C65.6243 60.6671 66.4341 61.618 67.3145 62.4984C68.1948 63.3787 68.9003 64.0136 69.6395 64.8206C70.5233 65.6009 71.3573 66.4359 72.1367 67.3205C72.7405 68.1021 73.0311 69.0841 72.9465 70.066C72.6329 71.2422 71.9554 72.2891 71.0108 73.0569C69.6822 74.4395 68.0675 75.5152 66.2798 76.2087C64.4921 76.9022 62.5745 77.1969 60.6611 77.0721C56.7873 76.8548 52.9919 75.8738 49.4987 74.1856Z" stroke="white" stroke-width="3.6" stroke-miterlimit="10" stroke-linecap="round"/>
</svg>
