<svg width="100" height="100" viewBox="0 0 100 100" fill="none" xmlns="http://www.w3.org/2000/svg">
<rect width="100" height="100" rx="12" fill="#2E518A"/>
<path d="M68.0307 47.4858C68.0307 43.2792 66.3596 39.245 63.3852 36.2705C60.4107 33.2961 56.3765 31.625 52.1699 31.625M78.9034 46.3759C78.9034 43.0433 78.2469 39.7432 76.9715 36.6643C75.696 33.5853 73.8266 30.7877 71.4698 28.4313C69.1131 26.0749 66.3153 24.2058 63.2362 22.9307C60.1571 21.6557 56.857 20.9996 53.5243 21M51.6652 75.7617C50.7246 75.3322 49.7872 74.9027 48.8498 74.3917C44.2508 71.795 40.0266 68.5844 36.2935 64.8483C31.4533 60.293 27.4776 54.8993 24.5586 48.9279C22.9951 45.7215 21.9396 42.2914 21.4298 38.7606C20.7359 35.1935 21.1314 31.5001 22.5647 28.1607C23.4472 26.7255 24.5116 25.4104 25.7312 24.248C26.2264 23.6937 26.8285 23.2452 27.5015 22.9295C28.1744 22.6138 28.9042 22.4374 29.647 22.4108C31.1926 22.6428 32.594 23.4517 33.5597 24.6775C35.6728 27.0258 37.9395 29.1389 40.1686 31.368C41.0464 32.1204 41.5951 33.1863 41.6954 34.3401C41.6578 35.312 41.2847 36.2368 40.6388 36.9611C39.8958 37.9016 38.996 38.7606 38.137 39.6573C37.617 40.1572 37.2192 40.7702 36.9745 41.4488C36.7298 42.1274 36.6448 42.8532 36.7262 43.57C37.2654 45.2473 38.1903 46.7772 39.4255 48.0313C40.9079 50.053 42.4607 52.022 44.0812 53.9348C47.1021 57.4242 50.6835 60.3857 54.6781 62.6975C55.2309 63.1151 55.8846 63.3786 56.5725 63.4612C57.2604 63.5438 57.9579 63.4426 58.5939 63.1678C59.92 62.4248 61.102 61.4435 62.0739 60.2741C62.9149 59.2485 64.1207 58.5889 65.4379 58.4337C66.6105 58.4964 67.714 58.9981 68.5292 59.8446C69.5826 60.7412 70.4824 61.7978 71.4605 62.7759C72.4387 63.7541 73.2225 64.4595 74.0439 65.3562C75.0259 66.2232 75.9526 67.1509 76.8185 68.1339C77.4894 69.0023 77.8124 70.0934 77.7183 71.1844C77.3699 72.4913 76.6171 73.6545 75.5676 74.5077C74.0913 76.0439 72.2973 77.239 70.3109 78.0096C68.3246 78.7802 66.1939 79.1077 64.0678 78.969C59.7637 78.7275 55.5466 77.6375 51.6652 75.7617Z" stroke="white" stroke-width="4" stroke-miterlimit="10" stroke-linecap="round"/>
</svg>
