<svg width="100" height="100" viewBox="0 0 100 100" fill="none" xmlns="http://www.w3.org/2000/svg">
<rect width="100" height="100" rx="12" fill="#2E518A"/>
<path d="M80 50C80 57.9565 76.8393 65.5871 71.2132 71.2132C65.5871 76.8393 57.9565 80 50 80C42.0435 80 34.4129 76.8393 28.7868 71.2132C23.1607 65.5871 20 57.9565 20 50M80 50C80 42.0435 76.8393 34.4129 71.2132 28.7868C65.5871 23.1607 57.9565 20 50 20C42.0435 20 34.4129 23.1607 28.7868 28.7868C23.1607 34.4129 20 42.0435 20 50M80 50H20" stroke="white" stroke-width="4" stroke-linecap="round" stroke-linejoin="round"/>
<path d="M61.5385 50C60.9717 60.9707 56.9308 71.477 50 80C43.0692 71.477 39.0283 60.9707 38.4615 50C39.0283 39.0293 43.0692 28.523 50 20C56.9308 28.523 60.9717 39.0293 61.5385 50Z" stroke="white" stroke-width="4" stroke-linecap="round" stroke-linejoin="round"/>
</svg>
