<svg width="100" height="100" viewBox="0 0 100 100" fill="none" xmlns="http://www.w3.org/2000/svg">
<rect width="100" height="100" rx="50" fill="#2E518A"/>
<path d="M77 50C77 57.1608 74.1554 64.0284 69.0919 69.0919C64.0284 74.1554 57.1608 77 50 77C42.8392 77 35.9716 74.1554 30.9081 69.0919C25.8446 64.0284 23 57.1608 23 50M77 50C77 42.8392 74.1554 35.9716 69.0919 30.9081C64.0284 25.8446 57.1608 23 50 23C42.8392 23 35.9716 25.8446 30.9081 30.9081C25.8446 35.9716 23 42.8392 23 50M77 50H23" stroke="white" stroke-width="3.6" stroke-linecap="round" stroke-linejoin="round"/>
<path d="M60.3846 50C59.8745 59.8737 56.2378 69.3293 50 77C43.7623 69.3293 40.1255 59.8737 39.6154 50C40.1255 40.1263 43.7623 30.6707 50 23C56.2378 30.6707 59.8745 40.1263 60.3846 50Z" stroke="white" stroke-width="3.6" stroke-linecap="round" stroke-linejoin="round"/>
</svg>
